{"title":"Browse Music torrents\t Dj Casper - DIGITALOVERDOSE - VOL 1 - gho","uid":5314201,"size":33831539,"categoryP":"audio","categoryS":"music","magnet":"?xt=urn:btih:cfebee1bfcd4fd0fe11db26d2d681465e38b6e85&amp;dn=Browse+Music+torrents%09+Dj+Casper+-+DIGITALOVERDOSE+-+VOL+1+-+gho&amp;tr=udp%3A%2F%2Ftracker.openbittorrent.com%3A80&amp;tr=udp%3A%2F%2Fopen.demonii.com%3A1337&amp;tr=udp%3A%2F%2Ftracker.coppersurfer.tk%3A6969&amp;tr=udp%3A%2F%2Fexodus.desync.com%3A6969","seeders":0,"leechers":0,"uploader":"xXxghostmanxXx","files":15,"time":1264657535,"description":"[img=&quot;dj\n[b]Audio \nFormat : MPEG Audio \nFormat version : Version 2 \nFormat profile : Layer 3 \nFormat_Settings_Mode : Joint stereo \nDuration : 4mn 57s \nBit rate mode : Constant \nBit rate : 80.0 Kbps \nChannel(s) : 2 channels \nSampling rate : 22.05 KHz \nResolution : 16 bits \nStream size : 2.83 MiB (100%) \n\nGeneral \nComplete name : C:UsersCasperMusicDj Casper - DIGITALOVERDOSE - VOL 1 - ghostman Ã‚Â°(the group-Team)Ã‚Â©Ã‚Â°Track 03 - Dj Casper - DIGITALOVERDOSE - VOL 1 - Message In A Bottle.mp3 \nFormat : MPEG Audio \nFile size : 2.61 MiB \nDuration : 4mn 33s \nOverall bit rate : 80.0 Kbps \nAlbum : DIGITALOVERDOSE VOL 1 \nTrack name : 03 \nTrack name/Position : 3 \nPerformer : Dj Casper \nAccompaniment : Dj Casper \nGenre : Techno \nRecorded date : 2010 \n\nAudio \nFormat : MPEG Audio \nFormat version : Version 2 \nFormat profile : Layer 3 \nFormat_Settings_Mode : Joint stereo / Intensity Stereo \nDuration : 4mn 33s \nBit rate mode : Constant \nBit rate : 80.0 Kbps \nChannel(s) : 2 channels \nSampling rate : 22.05 KHz \nResolution : 16 bits \nStream size : 2.60 MiB (100%) \n\nGeneral \nComplete name : C:UsersCasperMusicDj Casper - DIGITALOVERDOSE - VOL 1 - ghostman Ã‚Â°(the group-Team)Ã‚Â©Ã‚Â°Track 04 - Dj Casper - DIGITALOVERDOSE - VOL 1 - All For The Best.mp3 \nFormat : MPEG Audio \nFile size : 2.16 MiB \nDuration : 3mn 46s \nOverall bit rate : 80.0 Kbps \nAlbum : DIGITALOVERDOSE VOL 1 \nTrack name : 04 \nTrack name/Position : 4 \nPerformer : Dj Casper \nAccompaniment : Dj Casper \nGenre : Techno \nRecorded date : 2010 \n\nAudio \nFormat : MPEG Audio \nFormat version : Version 2 \nFormat profile : Layer 3 \nFormat_Settings_Mode : Joint stereo / Intensity Stereo \nDuration : 3mn 46s \nBit rate mode : Constant \nBit rate : 80.0 Kbps \nChannel(s) : 2 channels \nSampling rate : 22.05 KHz \nResolution : 16 bits \nStream size : 2.16 MiB (100%) \n\nGeneral \nComplete name : C:UsersCasperMusicDj Casper - DIGITALOVERDOSE - VOL 1 - ghostman Ã‚Â°(the group-Team)Ã‚Â©Ã‚Â°Track 05 - Dj Casper - DIGITALOVERDOSE - VOL 1 - I Gotta Feeling.mp3 \nFormat : MPEG Audio \nFile size : 2.66 MiB \nDuration : 4mn 37s \nOverall bit rate : 80.0 Kbps \nAlbum : DIGITALOVERDOSE VOL 1 \nTrack name : 05 \nTrack name/Position : 5 \nPerformer : Dj Casper \nAccompaniment : Dj Casper \nGenre : Techno \nRecorded date : 2010 \n\nAudio \nFormat : MPEG Audio \nFormat version : Version 2 \nFormat profile : Layer 3 \nFormat_Settings_Mode : Joint stereo / Intensity Stereo \nDuration : 4mn 37s \nBit rate mode : Constant \nBit rate : 80.0 Kbps \nChannel(s) : 2 channels \nSampling rate : 22.05 KHz \nResolution : 16 bits \nStream size : 2.65 MiB (100%) \n\nGeneral \nComplete name : C:UsersCasperMusicDj Casper - DIGITALOVERDOSE - VOL 1 - ghostman Ã‚Â°(the group-Team)Ã‚Â©Ã‚Â°Track 06 - Dj Casper - DIGITALOVERDOSE - VOL 1 - Infinity.mp3 \nFormat : MPEG Audio \nFile size : 2.23 MiB \nDuration : 3mn 52s \nOverall bit rate : 80.0 Kbps \nAlbum : DIGITALOVERDOSE VOL 1 \nTrack name : 06 \nTrack name/Position : 6 \nPerformer : Dj Casper \nAccompaniment : Dj Casper \nGenre : Techno \nRecorded date : 2010 \n\nAudio \nFormat : MPEG Audio \nFormat version : Version 2 \nFormat profile : Layer 3 \nFormat_Settings_Mode : Joint stereo / Intensity Stereo \nDuration : 3mn 52s \nBit rate mode : Constant \nBit rate : 80.0 Kbps \nChannel(s) : 2 channels \nSampling rate : 22.05 KHz \nResolution : 16 bits \nStream size : 2.22 MiB (100%) \n\nGeneral \nComplete name : C:UsersCasperMusicDj Casper - DIGITALOVERDOSE - VOL 1 - ghostman Ã‚Â°(the group-Team)Ã‚Â©Ã‚Â°Track 07 - Dj Casper - DIGITALOVERDOSE - VOL 1 - Krazy.mp3 \nFormat : MPEG Audio \nFile size : 2.58 MiB \nDuration : 4mn 29s \nOverall bit rate : 80.0 Kbps \nAlbum : DIGITALOVERDOSE VOL 1 \nTrack name : 07 \nTrack name/Position : 7 \nPerformer : Dj Casper \nAccompaniment : Dj Casper \nGenre : Techno \nRecorded date : 2010 \n\nAudio \nFormat : MPEG Audio \nFormat version : Version 2 \nFormat profile : Layer 3 \nFormat_Settings_Mode : Joint stereo \nDuration : 4mn 29s \nBit rate mode : Constant \nBit rate : 80.0 Kbps \nChannel(s) : 2 channels \nSampling rate : 22.05 KHz \nResolution : 16 bits \nStream size : 2.57 MiB (100%) \n\nGeneral \nComplete name : C:UsersCasperMusicDj Casper - DIGITALOVERDOSE - VOL 1 - ghostman Ã‚Â°(the group-Team)Ã‚Â©Ã‚Â°Track 08 - Dj Casper - DIGITALOVERDOSE - VOL 1 - Jump.mp3 \nFormat : MPEG Audio \nFile size : 1.70 MiB \nDuration : 2mn 57s \nOverall bit rate : 80.0 Kbps \nAlbum : DIGITALOVERDOSE VOL 1 \nTrack name : 08 \nTrack name/Position : 8 \nPerformer : Dj Casper \nAccompaniment : Dj Casper \nGenre : Techno \nRecorded date : 2010 \n\nAudio \nFormat : MPEG Audio \nFormat version : Version 2 \nFormat profile : Layer 3 \nFormat_Settings_Mode : Joint stereo / Intensity Stereo \nDuration : 2mn 57s \nBit rate mode : Constant \nBit rate : 80.0 Kbps \nChannel(s) : 2 channels \nSampling rate : 22.05 KHz \nResolution : 16 bits \nStream size : 1.70 MiB (100%) \n\nGeneral \nComplete name : C:UsersCasperMusicDj Casper - DIGITALOVERDOSE - VOL 1 - ghostman Ã‚Â°(the group-Team)Ã‚Â©Ã‚Â°Track 09 - Dj Casper - DIGITALOVERDOSE - VOL 1 - Sugar.mp3 \nFormat : MPEG Audio \nFile size : 1.52 MiB \nDuration : 2mn 38s \nOverall bit rate : 80.0 Kbps \nAlbum : DIGITALOVERDOSE VOL 1 \nTrack name : 09 \nTrack name/Position : 9 \nPerformer : Dj Casper \nAccompaniment : Dj Casper \nGenre : Techno \nRecorded date : 2010 \n\nAudio \nFormat : MPEG Audio \nFormat version : Version 2 \nFormat profile : Layer 3 \nFormat_Settings_Mode : Joint stereo \nDuration : 2mn 38s \nBit rate mode : Constant \nBit rate : 80.0 Kbps \nChannel(s) : 2 channels \nSampling rate : 22.05 KHz \nResolution : 16 bits \nStream size : 1.51 MiB (100%) \n\nGeneral \nComplete name : C:UsersCasperMusicDj Casper - DIGITALOVERDOSE - VOL 1 - ghostman Ã‚Â°(the group-Team)Ã‚Â©Ã‚Â°Track 10 - Dj Casper - DIGITALOVERDOSE - VOL 1 - Im The Ish.mp3 \nFormat : MPEG Audio \nFile size : 1.66 MiB \nDuration : 2mn 53s \nOverall bit rate : 80.0 Kbps \nAlbum : DIGITALOVERDOSE VOL 1 \nTrack name : 10 \nTrack name/Position : 10 \nPerformer : Dj Casper \nAccompaniment : Dj Casper \nGenre : Techno \nRecorded date : 2010 \n\nAudio \nFormat : MPEG Audio \nFormat version : Version 2 \nFormat profile : Layer 3 \nFormat_Settings_Mode : Joint stereo / Intensity Stereo \nDuration : 2mn 53s \nBit rate mode : Constant \nBit rate : 80.0 Kbps \nChannel(s) : 2 channels \nSampling rate : 22.05 KHz \nResolution : 16 bits \nStream size : 1.66 MiB (100%) \n\nGeneral \nComplete name : C:UsersCasperMusicDj Casper - DIGITALOVERDOSE - VOL 1 - ghostman Ã‚Â°(the group-Team)Ã‚Â©Ã‚Â°Track 11 - Dj Casper - DIGITALOVERDOSE - VOL 1 - Boom To The Future.mp3 \nFormat : MPEG Audio \nFile size : 1.81 MiB \nDuration : 3mn 9s \nOverall bit rate : 80.0 Kbps \nAlbum : DIGITALOVERDOSE VOL 1 \nTrack name : 11 \nTrack name/Position : 11 \nPerformer : Dj Casper \nAccompaniment : Dj Casper \nGenre : Techno \nRecorded date : 2010 \n\nAudio \nFormat : MPEG Audio \nFormat version : Version 2 \nFormat profile : Layer 3 \nFormat_Settings_Mode : Joint stereo / Intensity Stereo \nDuration : 3mn 9s \nBit rate mode : Constant \nBit rate : 80.0 Kbps \nChannel(s) : 2 channels \nSampling rate : 22.05 KHz \nResolution : 16 bits \nStream size : 1.81 MiB (100%) \n\nGeneral \nComplete name : C:UsersCasperMusicDj Casper - DIGITALOVERDOSE - VOL 1 - ghostman Ã‚Â°(the group-Team)Ã‚Â©Ã‚Â°Track 12 - Dj Casper - DIGITALOVERDOSE - VOL 1 - Beautiful.mp3 \nFormat : MPEG Audio \nFile size : 1.94 MiB \nDuration : 3mn 23s \nOverall bit rate : 80.0 Kbps \nAlbum : DIGITALOVERDOSE VOL 1 \nTrack name : 12 \nTrack name/Position : 12 \nPerformer : Dj Casper \nAccompaniment : Dj Casper \nGenre : Techno \nRecorded date : 2010 \n\nAudio \nFormat : MPEG Audio \nFormat version : Version 2 \nFormat profile : Layer 3 \nFormat_Settings_Mode : Joint stereo / Intensity Stereo \nDuration : 3mn 23s \nBit rate mode : Constant \nBit rate : 80.0 Kbps \nChannel(s) : 2 channels \nSampling rate : 22.05 KHz \nResolution : 16 bits \nStream size : 1.94 MiB (100%) \n\nGeneral \nComplete name : C:UsersCasperMusicDj Casper - DIGITALOVERDOSE - VOL 1 - ghostman Ã‚Â°(the group-Team)Ã‚Â©Ã‚Â°Track 13 - Dj Casper - DIGITALOVERDOSE - VOL 1 - Party Break.mp3 \nFormat : MPEG Audio \nFile size : 1.76 MiB \nDuration : 3mn 4s \nOverall bit rate : 80.0 Kbps \nAlbum : DIGITALOVERDOSE VOL 1 \nTrack name : 13 \nTrack name/Position : 13 \nPerformer : Dj Casper \nAccompaniment : Dj Casper \nGenre : Techno \nRecorded date : 2010 \n\nAudio \nFormat : MPEG Audio \nFormat version : Version 2 \nFormat profile : Layer 3 \nFormat_Settings_Mode : Joint stereo \nDuration : 3mn 4s \nBit rate mode : Constant \nBit rate : 80.0 Kbps \nChannel(s) : 2 channels \nSampling rate : 22.05 KHz \nResolution : 16 bits \nStream size : 1.76 MiB (100%) \n\nGeneral \nComplete name : C:UsersCasperMusicDj Casper - DIGITALOVERDOSE - VOL 1 - ghostman Ã‚Â°(the group-Team)Ã‚Â©Ã‚Â°Track 14 - Dj Casper - DIGITALOVERDOSE - VOL 1 - Beggin.mp3 \nFormat : MPEG Audio \nFile size : 1.58 MiB \nDuration : 2mn 45s \nOverall bit rate : 80.0 Kbps \nAlbum : DIGITALOVERDOSE VOL 1 \nTrack name : 14 \nTrack name/Position : 14 \nPerformer : Dj Casper \nAccompaniment : Dj Casper \nGenre : Techno \nRecorded date : 2010 \n\nAudio \nFormat : MPEG Audio \nFormat version : Version 2 \nFormat profile : Layer 3 \nFormat_Settings_Mode : Joint stereo \nDuration : 2mn 45s \nBit rate mode : Constant \nBit rate : 80.0 Kbps \nChannel(s) : 2 channels \nSampling rate : 22.05 KHz \nResolution : 16 bits \nStream size : 1.58 MiB (100%) \n\nGeneral \nComplete name : C:UsersCasperMusicDj Casper - DIGITALOVERDOSE - VOL 1 - ghostman Ã‚Â°(the group-Team)Ã‚Â©Ã‚Â°Track 15 - Dj Casper - DIGITALOVERDOSE - VOL 1 - Outta Control.mp3 \nFormat : MPEG Audio \nFile size : 1.83 MiB \nDuration : 3mn 11s \nOverall bit rate : 80.0 Kbps \nAlbum : DIGITALOVERDOSE VOL 1 \nTrack name : 15 \nTrack name/Position : 15 \nPerformer : Dj Casper \nAccompaniment : Dj Casper \nGenre : Techno \nRecorded date : 2010 \n\nAudio \nFormat : MPEG Audio \nFormat version : Version 2 \nFormat profile : Layer 3 \nFormat_Settings_Mode : Joint stereo \nDuration : 3mn 11s \nBit rate mode : Constant \nBit rate : 80.0 Kbps \nChannel(s) : 2 channels \nSampling rate : 22.05 KHz \nResolution : 16 bits \nStream size : 1.82 MiB (100%) \n\n[/b]\n[img=me]\n[color=red][size=7]Produced and Mixed by Me, Dj Casper (aka Ghostman)[/size][/color]\n[img=group]http://leetleech.org/images/69773221966352511978.gif[/img]","torrent":{"xt":"urn:btih:cfebee1bfcd4fd0fe11db26d2d681465e38b6e85","amp;dn":"Browse+Music+torrents%09+Dj+Casper+-+DIGITALOVERDOSE+-+VOL+1+-+gho","amp;tr":["udp%3A%2F%2Ftracker.openbittorrent.com%3A80","udp%3A%2F%2Fopen.demonii.com%3A1337","udp%3A%2F%2Ftracker.coppersurfer.tk%3A6969","udp%3A%2F%2Fexodus.desync.com%3A6969"],"infoHash":"cfebee1bfcd4fd0fe11db26d2d681465e38b6e85","infoHashBuffer":{"type":"Buffer","data":[207,235,238,27,252,212,253,15,225,29,178,109,45,104,20,101,227,139,110,133]},"announce":[],"urlList":[]}}